<?xml version="1.0" standalone="no"?>
<!DOCTYPE svg PUBLIC "-//W3C//DTD SVG 20010904//EN"
 "http://www.w3.org/TR/2001/REC-SVG-20010904/DTD/svg10.dtd">
<svg version="1.0" xmlns="http://www.w3.org/2000/svg"
 width="1280.000000pt" height="1280.000000pt" viewBox="0 0 1280.000000 1280.000000"
 preserveAspectRatio="xMidYMid meet">
<metadata>
Created by potrace 1.11, written by Peter Selinger 2001-2013
</metadata>
<g transform="translate(0.000000,1280.000000) scale(0.100000,-0.100000)"
fill="#000000" stroke="none">
<path d="M560 10299 c-244 -64 -431 -238 -517 -484 l-28 -80 0 -2670 0 -2670
23 -75 c36 -116 88 -204 169 -291 100 -106 207 -172 352 -216 52 -16 215 -18
2414 -20 1296 -2 2357 0 2356 4 0 5 -62 112 -138 238 l-138 230 -276 3 c-255
2 -277 4 -277 20 2 114 23 450 35 558 74 638 263 1123 552 1419 114 117 261
212 387 251 71 22 78 36 78 155 0 103 -25 226 -61 300 l-26 54 -166 5 c-165 5
-199 12 -199 44 0 6 61 143 136 305 147 319 143 302 113 413 l-10 38 -472 2
-472 3 58 43 c32 24 205 145 385 269 180 125 329 228 331 230 2 1 8 53 13 115
43 552 333 950 806 1108 405 134 904 88 1351 -126 382 -183 587 -412 700 -779
57 -187 73 -304 78 -580 3 -141 1 -265 -4 -285 l-10 -35 -65 1 -66 0 -6 -44
c-3 -25 -6 -95 -6 -156 0 -176 32 -274 100 -308 32 -17 83 -18 631 -18 655 0
680 -2 867 -61 108 -35 270 -108 363 -165 33 -20 64 -32 68 -28 4 5 29 85 56
177 l48 168 -23 32 c-21 28 -1226 1593 -1993 2590 l-260 337 -3591 -1 c-3532
0 -3592 0 -3666 -20z m1130 -4482 c211 -75 339 -254 340 -473 0 -207 -102
-371 -285 -460 -196 -93 -416 -55 -571 100 -268 268 -157 721 204 837 86 27
228 25 312 -4z"/>
<path d="M8901 10313 c0 -5 406 -685 902 -1513 819 -1366 905 -1505 932 -1512
17 -4 55 -10 86 -13 l57 -6 46 -69 c43 -65 46 -74 46 -134 0 -71 -2 -69 77
-81 40 -6 47 -13 98 -85 52 -74 55 -81 55 -138 l0 -60 55 -7 c51 -6 58 -10
114 -72 l60 -65 3 -146 3 -146 75 -63 c102 -86 250 -184 362 -239 51 -24 102
-54 114 -65 30 -28 76 -117 120 -230 67 -175 86 -203 236 -372 110 -124 119
-148 88 -243 -12 -38 -48 -123 -80 -189 -133 -274 -312 -485 -476 -562 l-59
-28 -582 -3 -583 -2 0 -241 0 -240 763 4 c851 4 802 0 962 77 144 70 262 188
335 335 82 166 74 -106 78 2800 2 1763 -1 2616 -8 2670 -32 250 -185 465 -404
570 -168 80 -37 75 -1855 75 -892 0 -1621 -3 -1620 -7z"/>
<path d="M2273 3550 c-81 -17 -137 -61 -170 -135 -16 -36 -18 -78 -21 -378 -4
-378 1 -424 51 -489 49 -64 104 -88 201 -88 57 0 93 6 122 19 49 23 107 88
122 140 8 26 12 152 12 388 0 374 -2 397 -52 463 -45 61 -171 99 -265 80z
m112 -174 c14 -20 15 -71 13 -381 -3 -340 -4 -357 -22 -371 -28 -20 -60 -17
-82 7 -18 20 -19 43 -22 348 -3 342 -1 381 24 406 24 24 71 19 89 -9z"/>
<path d="M5736 3549 c-68 -11 -124 -53 -158 -118 l-28 -53 0 -379 c0 -408 2
-422 53 -477 44 -47 94 -64 173 -60 57 3 80 8 105 27 l33 24 14 -21 c12 -18
24 -22 68 -22 l54 0 0 265 0 265 -130 0 -130 0 0 -65 0 -65 35 0 35 0 0 -119
c0 -132 -7 -151 -60 -151 -59 0 -60 7 -60 400 0 392 1 400 59 400 50 0 61 -25
61 -138 l0 -102 95 0 95 0 0 110 c0 98 -3 116 -25 160 -25 49 -69 91 -115 108
-41 15 -121 20 -174 11z"/>
<path d="M9323 3550 c-92 -19 -152 -75 -179 -167 -35 -119 1 -210 166 -418
132 -167 154 -209 147 -271 -5 -51 -38 -94 -72 -94 -51 0 -95 71 -95 154 0 23
-4 26 -37 26 -21 0 -62 -3 -92 -7 l-53 -6 4 -71 c6 -83 30 -138 82 -184 45
-39 91 -52 191 -52 85 0 161 26 197 66 37 42 60 115 61 190 0 94 -31 160 -142
299 -44 55 -101 131 -128 169 -45 64 -48 72 -48 133 0 52 4 67 19 79 50 36
101 -3 112 -87 l7 -49 41 0 c22 0 64 3 92 6 l50 6 -7 57 c-8 68 -37 137 -70
168 -51 47 -162 70 -246 53z"/>
<path d="M117 3543 c-4 -3 -7 -246 -7 -540 l0 -533 90 0 90 0 0 362 c0 199 3
359 6 356 3 -3 32 -156 65 -339 32 -184 61 -344 64 -356 4 -19 12 -23 45 -23
33 0 40 4 45 23 3 12 30 164 60 337 31 173 60 326 65 340 5 15 9 -119 9 -337
l1 -363 90 0 90 0 -2 538 -3 537 -109 3 c-60 1 -113 -1 -117 -5 -8 -8 -119
-481 -119 -508 0 -8 -4 -15 -10 -15 -5 0 -10 7 -10 15 0 20 -109 495 -116 506
-6 10 -217 12 -227 2z"/>
<path d="M1145 3538 c-3 -7 -45 -238 -95 -513 -50 -275 -93 -512 -96 -527 l-6
-28 94 0 94 0 13 88 c20 145 10 132 112 132 102 0 90 13 112 -130 l13 -85 92
-3 c51 -1 92 0 92 2 0 17 -192 1061 -196 1068 -9 14 -224 10 -229 -4z m149
-485 c14 -93 26 -176 26 -185 0 -15 -10 -18 -60 -18 -41 0 -60 4 -60 13 -1 31
55 357 61 357 3 0 18 -75 33 -167z"/>
<path d="M1740 3108 c0 -492 1 -481 -65 -494 l-35 -6 0 -75 0 -76 75 5 c92 6
157 41 189 103 20 39 21 53 21 510 l0 470 -92 3 -93 3 0 -443z"/>
<path d="M2758 3545 c-5 -5 -8 -248 -8 -542 l0 -533 95 0 95 0 0 225 0 225 28
0 28 0 49 -225 48 -225 94 0 c68 0 93 3 93 13 -1 6 -27 122 -59 257 l-57 245
28 27 c52 49 72 111 72 223 0 83 -4 109 -23 152 -30 67 -85 118 -152 137 -57
17 -319 33 -331 21z m274 -179 c48 -29 68 -169 34 -235 -18 -34 -62 -61 -101
-61 l-25 0 0 153 c0 85 3 157 7 161 9 8 61 -2 85 -18z"/>
<path d="M5010 3548 c-1 -2 -45 -245 -98 -540 l-98 -538 92 0 92 0 10 63 c6
34 14 83 18 110 l6 47 93 0 92 0 7 -47 c3 -27 11 -76 17 -110 l11 -63 92 0 92
0 -98 538 c-54 295 -98 538 -98 540 0 1 -52 2 -115 2 -63 0 -115 -1 -115 -2z
m151 -510 c16 -95 29 -176 29 -180 0 -5 -29 -8 -65 -8 -36 0 -65 2 -65 5 0 9
50 321 56 344 3 13 7 21 11 18 3 -3 18 -84 34 -179z"/>
<path d="M6230 3092 l0 -458 25 -51 c46 -92 119 -128 247 -122 101 6 161 41
201 118 l27 55 0 458 0 459 -92 -3 -93 -3 -3 -449 c-2 -494 -1 -486 -62 -486
-55 0 -55 -4 -60 484 l-5 451 -92 3 -93 3 0 -459z"/>
<path d="M7797 3543 c-4 -3 -7 -247 -7 -541 l0 -534 168 4 c157 3 170 5 217
30 103 54 140 125 140 273 0 89 -3 106 -27 151 -15 28 -42 65 -61 81 l-35 31
39 38 c56 55 71 92 70 182 -1 189 -73 262 -276 282 -117 11 -219 13 -228 3z
m276 -175 c44 -23 63 -149 31 -209 -15 -31 -66 -59 -104 -59 -19 0 -20 6 -20
146 l0 146 37 -7 c21 -4 46 -11 56 -17z m-5 -435 c34 -21 52 -73 52 -145 0
-80 -22 -127 -73 -151 -65 -32 -67 -28 -67 158 l0 167 33 -7 c17 -4 43 -14 55
-22z"/>
<path d="M8606 3523 c-15 -74 -186 -1028 -186 -1039 0 -11 21 -14 90 -14 l89
0 6 33 c3 17 11 66 18 107 l12 75 91 3 91 3 18 -111 18 -110 92 0 c84 0 93 2
89 18 -2 9 -45 244 -94 522 -50 278 -93 513 -96 523 -5 15 -19 17 -119 17
l-113 0 -6 -27z m158 -495 c15 -86 26 -161 26 -167 0 -12 -116 -16 -123 -3 -4
6 28 225 49 332 5 30 8 32 15 15 4 -11 19 -90 33 -177z"/>
<path d="M10360 3009 l0 -541 163 4 c159 3 165 4 223 33 78 40 118 98 134 195
21 124 -12 245 -85 308 l-33 30 35 33 c52 50 73 101 73 185 0 133 -47 219
-143 259 -41 17 -191 34 -299 35 l-68 0 0 -541z m281 358 c46 -29 64 -133 34
-203 -15 -35 -61 -64 -105 -64 -19 0 -20 6 -20 146 l0 146 36 -7 c20 -3 45
-12 55 -18z m-1 -436 c32 -23 49 -71 49 -141 0 -100 -32 -150 -106 -165 l-33
-7 0 172 0 172 33 -7 c17 -4 43 -14 57 -24z"/>
<path d="M11175 3528 c-3 -13 -45 -248 -95 -523 -50 -275 -92 -508 -94 -517
-4 -16 5 -18 89 -18 l92 0 18 110 18 111 91 -3 91 -3 13 -75 c7 -41 15 -90 18
-107 l5 -33 89 0 c75 0 90 3 90 15 0 13 -168 949 -186 1038 l-6 27 -114 0
c-110 0 -114 -1 -119 -22z m155 -490 c15 -95 26 -176 23 -180 -5 -9 -123 -11
-123 -2 0 10 50 319 55 343 3 13 8 21 11 18 3 -3 18 -83 34 -179z"/>
<path d="M3730 3005 l0 -535 220 0 220 0 0 70 0 69 -122 3 -123 3 -3 463 -2
462 -95 0 -95 0 0 -535z"/>
<path d="M4290 3005 l0 -535 215 0 215 0 0 80 0 80 -120 0 -120 0 0 150 0 150
85 0 85 0 0 85 0 85 -85 0 -85 0 0 140 0 140 120 0 120 0 0 80 0 80 -215 0
-215 0 0 -535z"/>
<path d="M6910 3005 l0 -535 215 0 215 0 0 80 0 80 -120 0 -120 0 0 150 0 150
90 0 91 0 -3 83 -3 82 -87 3 -88 3 0 139 0 140 120 0 120 0 0 80 0 80 -215 0
-215 0 0 -535z"/>
<path d="M9780 3005 l0 -535 220 0 220 0 0 80 0 80 -125 0 -126 0 3 148 3 147
88 3 87 3 0 84 0 85 -90 0 -90 0 0 140 0 140 125 0 125 0 0 80 0 80 -220 0
-220 0 0 -535z"/>
<path d="M11730 3005 l0 -535 220 0 220 0 0 70 0 70 -125 0 -125 0 0 465 0
465 -95 0 -95 0 0 -535z"/>
<path d="M12280 3005 l0 -535 225 0 225 0 0 70 0 69 -127 3 -128 3 -3 463 -2
462 -95 0 -95 0 0 -535z"/>
</g>
</svg>
